HIERARCHY
ROOT joint_Root
{
	OFFSET 0.0 0.0 0.0
	CHANNELS 6 Xposition Yposition Zposition Zrotation Xrotation Yrotation 
	JOINT Hips
	{
		OFFSET -17.1583 93.1646 452.98
		CHANNELS 6 Xposition Yposition Zposition Zrotation Xrotation Yrotation 
		JOINT Spine
		{
			OFFSET 15.7357 0.0 0.0
			CHANNELS 6 Xposition Yposition Zposition Zrotation Xrotation Yrotation 
			JOINT Chest
			{
				OFFSET 8.98455 -0.406207 0.0
				CHANNELS 6 Xposition Yposition Zposition Zrotation Xrotation Yrotation 
				JOINT Neck
				{
					OFFSET 16.3773 0.0 0.0
					CHANNELS 6 Xposition Yposition Zposition Zrotation Xrotation Yrotation 
					JOINT Head
					{
						OFFSET 6.45672 0.0 0.0
						CHANNELS 6 Xposition Yposition Zposition Zrotation Xrotation Yrotation 
						End Site
						{
							OFFSET 0.0 0.0 0.0
						}
					}
				}
				JOINT Shoulder_L
				{
					OFFSET 12.9942 -0.242716 4.98039
					CHANNELS 6 Xposition Yposition Zposition Zrotation Xrotation Yrotation 
					JOINT UpperArm_L
					{
						OFFSET 5.34809 0.0 0.0
						CHANNELS 6 Xposition Yposition Zposition Zrotation Xrotation Yrotation 
						JOINT LowerArm_L
						{
							OFFSET 24.3286 1.87007e-05 0.0
							CHANNELS 6 Xposition Yposition Zposition Zrotation Xrotation Yrotation 
							JOINT Hand_L
							{
								OFFSET 22.2916 0.0 0.0
								CHANNELS 6 Xposition Yposition Zposition Zrotation Xrotation Yrotation 
								End Site
								{
									OFFSET 0.0 0.0 0.0
								}
							}
						}
					}
				}
				JOINT Shoulder_R
				{
					OFFSET 12.9945 -0.242716 -4.98039
					CHANNELS 6 Xposition Yposition Zposition Zrotation Xrotation Yrotation 
					JOINT UpperArm_R
					{
						OFFSET -5.34813 0.0 0.0
						CHANNELS 6 Xposition Yposition Zposition Zrotation Xrotation Yrotation 
						JOINT LowerArm_R
						{
							OFFSET -24.3289 0.000322201 0.0
							CHANNELS 6 Xposition Yposition Zposition Zrotation Xrotation Yrotation 
							JOINT Hand_R
							{
								OFFSET -22.2915 -0.000108084 0.0
								CHANNELS 6 Xposition Yposition Zposition Zrotation Xrotation Yrotation 
								End Site
								{
									OFFSET 0.0 0.0 0.0
								}
							}
						}
					}
				}
			}
		}
		JOINT UpperLeg_L
		{
			OFFSET -2.19248 -6.46944 0.0
			CHANNELS 6 Xposition Yposition Zposition Zrotation Xrotation Yrotation 
			JOINT LowerLeg_L
			{
				OFFSET 39.0811 0.0 -1.23785e-05
				CHANNELS 6 Xposition Yposition Zposition Zrotation Xrotation Yrotation 
				JOINT Foot_L
				{
					OFFSET 40.9854 0.0 -1.26872e-05
					CHANNELS 6 Xposition Yposition Zposition Zrotation Xrotation Yrotation 
					JOINT Toes_L
					{
						OFFSET 11.7543 0.0 0.0
						CHANNELS 6 Xposition Yposition Zposition Zrotation Xrotation Yrotation 
						End Site
						{
							OFFSET 0.0 0.0 0.0
						}
					}
				}
			}
		}
		JOINT UpperLeg_R
		{
			OFFSET -2.19251 6.46944 0.0
			CHANNELS 6 Xposition Yposition Zposition Zrotation Xrotation Yrotation 
			JOINT LowerLeg_R
			{
				OFFSET -39.0811 -0.00228153 -0.0401928
				CHANNELS 6 Xposition Yposition Zposition Zrotation Xrotation Yrotation 
				JOINT Foot_R
				{
					OFFSET -40.9854 0.0 0.0
					CHANNELS 6 Xposition Yposition Zposition Zrotation Xrotation Yrotation 
					JOINT Toes_R
					{
						OFFSET -11.7543 0.0 0.0
						CHANNELS 6 Xposition Yposition Zposition Zrotation Xrotation Yrotation 
						End Site
						{
							OFFSET 0.0 0.0 0.0
						}
					}
				}
			}
		}
	}
}
MOTION
Frames:	6
Frame Time:	0.0333333
0.000000 0.000000 0.000000 0.000000 0.000000 -0.000000 -0.249933 92.995600 -1.011510 87.078900 0.513985 1.224840 15.735700 0.000005 -0.000001 59.972400 87.144900 -58.008300 8.984550 -0.406207 -0.000000 -2.768800 -3.036900 3.855730 16.377300 -0.000001 -0.000001 5.373090 1.045890 -1.847110 6.456720 -0.000001 -0.000000 2.611810 0.661737 -1.309340 12.994200 -0.242716 4.980390 -92.369700 7.217640 -71.769100 5.348090 -0.000007 -0.000001 -74.153800 28.411700 0.379129 24.328600 0.000019 0.000005 12.617700 28.697300 -24.993900 22.291600 -0.000001 0.000005 -3.332250 5.033960 6.588610 12.994500 -0.242716 -4.980390 88.633800 4.083560 -71.483600 -5.348130 -0.000001 -0.000004 -73.015000 9.855730 -2.158300 -24.328900 0.000322 -0.000009 3.329080 7.292260 -24.627400 -22.291500 -0.000108 -0.000004 5.271930 5.222880 2.139350 -2.192480 -6.469440 -0.000000 -176.617000 1.752020 -2.763080 39.081100 -0.000007 -0.000012 0.192862 -0.542807 19.560700 40.985400 -0.000006 -0.000013 2.848300 9.969870 -71.687700 11.754300 -0.000000 0.000003 0.000808 0.152679 -10.384800 -2.192510 6.469440 -0.000001 -175.897000 5.632710 -178.335000 -39.081100 -0.002282 -0.040193 0.020289 -0.076473 12.500200 -40.985400 0.000008 0.000006 -1.781280 2.194630 -68.315200 -11.754300 -0.000006 -0.000006 -0.008830 0.262341 -5.917450
0.000000 0.000000 0.000000 0.000000 0.000000 -0.000000 -0.294464 93.005100 -1.075180 87.076600 0.505351 1.152970 15.735700 0.000005 -0.000001 59.899100 87.124400 -57.929200 8.984550 -0.406207 -0.000000 -2.736350 -3.063770 3.867500 16.377300 -0.000001 -0.000001 5.203920 1.025440 -1.771500 6.456720 -0.000001 -0.000000 2.450710 0.678486 -1.229290 12.994200 -0.242716 4.980390 -92.349400 7.170160 -71.804200 5.348090 -0.000007 -0.000001 -74.186500 28.386900 0.317000 24.328600 0.000019 0.000005 12.634100 28.694800 -25.025000 22.291600 -0.000001 0.000005 -3.303120 5.035070 6.564550 12.994500 -0.242716 -4.980390 88.636400 4.080280 -71.503500 -5.348130 -0.000001 -0.000004 -72.830900 9.148090 -2.111320 -24.328900 0.000322 -0.000009 3.526660 7.367870 -25.675100 -22.291500 -0.000108 -0.000004 5.060120 5.211400 2.431820 -2.192480 -6.469440 -0.000000 -176.580000 1.736290 -2.870080 39.081100 -0.000007 -0.000012 0.193560 -0.545333 19.542100 40.985400 -0.000006 -0.000013 2.811020 9.997670 -71.657100 11.754300 -0.000000 0.000003 0.000785 0.153163 -10.365200 -2.192510 6.469440 -0.000001 -175.840000 5.576120 -178.429000 -39.081100 -0.002282 -0.040193 0.020399 -0.077338 12.442800 -40.985400 0.000008 0.000006 -1.708410 2.144200 -68.237200 -11.754300 -0.000006 -0.000006 -0.008647 0.260897 -5.976460
0.000000 0.000000 0.000000 0.000000 0.000000 -0.000000 -0.348750 93.013100 -1.139380 87.052300 0.472590 1.102850 15.735700 0.000005 -0.000001 60.075200 87.095000 -58.083100 8.984550 -0.406207 -0.000000 -2.675570 -3.078810 3.913260 16.377300 -0.000001 -0.000001 4.990780 0.995122 -1.658430 6.456720 -0.000001 -0.000000 2.258570 0.685340 -1.163030 12.994200 -0.242716 4.980390 -92.346500 7.165910 -71.815000 5.348090 -0.000007 -0.000001 -74.192000 28.425700 0.272415 24.328600 0.000019 0.000005 12.714000 28.768000 -25.117000 22.291600 -0.000001 0.000005 -3.229420 5.036240 6.538730 12.994500 -0.242716 -4.980390 88.635200 4.070570 -71.446200 -5.348130 -0.000001 -0.000004 -72.560700 8.231170 -2.079030 -24.328900 0.000322 -0.000009 3.726360 7.296650 -27.155300 -22.291500 -0.000108 -0.000004 4.889460 5.201550 2.680470 -2.192480 -6.469440 -0.000000 -176.513000 1.692180 -2.974530 39.081100 -0.000007 -0.000012 0.192790 -0.542919 19.550200 40.985400 -0.000006 -0.000013 2.766120 10.012200 -71.597000 11.754300 -0.000000 0.000003 0.000789 0.153078 -10.368600 -2.192510 6.469440 -0.000001 -175.761000 5.468630 -178.513000 -39.081100 -0.002282 -0.040193 0.020129 -0.076324 12.409500 -40.985400 0.000008 0.000006 -1.734890 2.051810 -68.178000 -11.754300 -0.000006 -0.000006 -0.008855 0.262542 -5.909240
0.000000 0.000000 0.000000 0.000000 0.000000 -0.000000 -0.400728 93.020100 -1.205350 87.049000 0.414995 1.082820 15.735700 0.000005 -0.000001 60.171100 87.061100 -58.162100 8.984550 -0.406207 -0.000000 -2.610970 -3.104500 3.948010 16.377300 -0.000001 -0.000001 4.803520 0.987328 -1.539270 6.456720 -0.000001 -0.000000 2.073360 0.697106 -0.977477 12.994200 -0.242716 4.980390 -92.321800 7.124590 -71.897000 5.348090 -0.000007 -0.000001 -74.309800 28.350600 0.291574 24.328600 0.000019 0.000005 12.691900 28.759500 -25.083500 22.291600 -0.000001 0.000005 -3.261540 5.037440 6.512790 12.994500 -0.242716 -4.980390 88.652900 4.025080 -71.478300 -5.348130 -0.000001 -0.000004 -72.274800 6.946020 -1.953880 -24.328900 0.000322 -0.000009 4.048900 7.292470 -29.151900 -22.291500 -0.000108 -0.000004 4.632770 5.187490 3.031570 -2.192480 -6.469440 -0.000000 -176.472000 1.676720 -3.026900 39.081100 -0.000007 -0.000012 0.192080 -0.541192 19.541200 40.985400 -0.000006 -0.000013 2.714470 9.990610 -71.564200 11.754300 -0.000000 0.000003 0.000771 0.153442 -10.353900 -2.192510 6.469440 -0.000001 -175.713000 5.379240 -178.571000 -39.081100 -0.002282 -0.040193 0.020487 -0.078057 12.393300 -40.985400 0.000008 0.000006 -1.666200 2.044580 -68.134300 -11.754300 -0.000006 -0.000006 -0.008880 0.262739 -5.901180
0.000000 0.000000 0.000000 0.000000 0.000000 -0.000000 -0.447985 93.031100 -1.281080 87.029500 0.321404 1.023450 15.735700 0.000005 -0.000001 60.259600 87.030700 -58.229900 8.984550 -0.406207 -0.000000 -2.552650 -3.127610 3.990610 16.377300 -0.000001 -0.000001 4.588170 0.960010 -1.417400 6.456720 -0.000001 -0.000000 1.788790 0.738380 -0.691414 12.994200 -0.242716 4.980390 -92.295900 7.069560 -71.956700 5.348090 -0.000007 -0.000001 -74.417900 28.338300 0.353817 24.328600 0.000019 0.000005 12.638100 28.570700 -25.119500 22.291600 -0.000001 0.000005 -3.242120 5.038350 6.492940 12.994500 -0.242716 -4.980390 88.663200 3.994460 -71.478900 -5.348130 -0.000001 -0.000004 -71.884400 5.617720 -1.834250 -24.328900 0.000322 -0.000009 4.403230 7.170470 -31.676400 -22.291500 -0.000108 -0.000004 4.508980 5.173360 3.378710 -2.192480 -6.469440 -0.000000 -176.418000 1.607470 -3.113530 39.081100 -0.000007 -0.000012 0.191662 -0.540659 19.519600 40.985400 -0.000006 -0.000013 2.661750 9.957450 -71.521300 11.754300 -0.000000 0.000003 0.000839 0.152047 -10.410500 -2.192510 6.469440 -0.000001 -175.653000 5.338830 -178.665000 -39.081100 -0.002282 -0.040193 0.019966 -0.075951 12.351400 -40.985400 0.000008 0.000006 -1.679440 2.061910 -68.056900 -11.754300 -0.000006 -0.000006 -0.008830 0.262344 -5.917350
0.000000 0.000000 0.000000 0.000000 0.000000 -0.000000 -0.507057 93.048600 -1.374630 87.000700 0.248177 0.906581 15.735700 0.000005 -0.000001 59.818800 87.009700 -57.751600 8.984550 -0.406207 -0.000000 -2.536880 -3.191400 4.064610 16.377300 -0.000001 -0.000001 4.357550 0.932060 -1.219170 6.456720 -0.000001 -0.000000 1.513850 0.800348 -0.487909 12.994200 -0.242716 4.980390 -92.288400 7.065630 -72.002600 5.348090 -0.000007 -0.000001 -74.494200 28.380100 0.442640 24.328600 0.000019 0.000005 12.653600 28.530700 -25.175600 22.291600 -0.000001 0.000005 -3.274540 5.038570 6.488040 12.994500 -0.242716 -4.980390 88.678500 3.931260 -71.402900 -5.348130 -0.000001 -0.000004 -71.518900 3.894390 -1.825950 -24.328900 0.000322 -0.000009 5.094500 7.426240 -34.600100 -22.291500 -0.000108 -0.000004 4.339000 5.154650 3.832090 -2.192480 -6.469440 -0.000000 -176.335000 1.565590 -3.271450 39.081100 -0.000007 -0.000012 0.190291 -0.537952 19.480600 40.985400 -0.000006 -0.000013 2.593200 9.950000 -71.471700 11.754300 -0.000000 0.000003 0.000760 0.153672 -10.344500 -2.192510 6.469440 -0.000001 -175.573000 5.213810 -178.793000 -39.081100 -0.002282 -0.040193 0.018473 -0.069844 12.229200 -40.985400 0.000008 0.000006 -1.694900 2.051210 -67.903100 -11.754300 -0.000006 -0.000006 -0.008552 0.260149 -6.007050
